<svg xmlns="http://www.w3.org/2000/svg"
     width="1425"
     height="751"
     viewBox="5 -16.236 1425 750.3">
<g id="a1:128" transform="translate(38, 3.764)"><text font-size="24" font-family="Noto Sans SC" font-weight="bold" fill="#202833" text-anchor="start" dominant-baseline="alphabetic" x="0"><tspan x="0" y="28.236"><tspan x="0" text-anchor="start">(a) Integrated method</tspan></tspan></text></g>
<g id="a1:129" transform="translate(284.93, 36.764)"><text font-size="24" font-family="Noto Sans SC" font-weight="bold" fill="#202833" text-anchor="start" dominant-baseline="alphabetic" x="0"><tspan x="0" y="28.236"><tspan x="0" text-anchor="start">C-1 Inspection facts</tspan></tspan></text></g>
<g id="a1:130" transform="translate(546.455, 36.764)"><text font-size="24" font-family="Noto Sans SC" font-weight="bold" fill="#202833" text-anchor="start" dominant-baseline="alphabetic" x="0"><tspan x="0" y="28.236"><tspan x="0" text-anchor="start">C-2 Intermediate guidance</tspan></tspan></text></g>
<g id="a1:131" transform="translate(883.32, 36.764)"><text font-size="24" font-family="Noto Sans SC" font-weight="bold" fill="#202833" text-anchor="start" dominant-baseline="alphabetic" x="0"><tspan x="0" y="28.236"><tspan x="0" text-anchor="start">C-3 Execution feedback</tspan></tspan></text></g>
<g id="o1:37" transform="translate(25, 100)"><rect x="0" y="0" width="205" height="60" fill="#ffffff" stroke="#202833" stroke-width="1.8" rx="0" ry="0"/></g>
<g id="a1:132" transform="translate(52.985, 112.117)"><text font-size="22" font-family="Noto Sans SC" font-weight="normal" fill="#202833" text-anchor="start" dominant-baseline="alphabetic" x="0"><tspan x="0" y="25.883"><tspan x="0" text-anchor="start">NL description</tspan></tspan></text></g>
<g id="o1:38" transform="translate(25, 215)"><rect x="0" y="0" width="205" height="60" fill="#ffffff" stroke="#202833" stroke-width="1.8" rx="0" ry="0"/></g>
<g id="a1:133" transform="translate(64.655, 213.117)"><text font-size="22" font-family="Noto Sans SC" font-weight="normal" fill="#202833" text-anchor="start" dominant-baseline="alphabetic" x="0"><tspan x="0" y="25.883"><tspan x="0" text-anchor="start">Source state</tspan></tspan></text></g>
<g id="a1:134" transform="translate(83.005, 241.117)"><text font-size="22" font-family="Noto Sans SC" font-weight="normal" fill="#202833" text-anchor="start" dominant-baseline="alphabetic" x="0"><tspan x="0" y="25.883"><tspan x="0" text-anchor="start">machine</tspan></tspan></text></g>
<g id="o1:39" transform="translate(275, 215)"><rect x="0" y="0" width="250" height="76" fill="#dcebf4" stroke="#202833" stroke-width="1.8" rx="0" ry="0"/></g>
<g id="a1:135" transform="translate(286.505, 224.648)"><text font-size="19" font-family="Noto Sans SC" font-weight="normal" fill="#202833" text-anchor="start" dominant-baseline="alphabetic" x="0"><tspan x="0" y="22.354"><tspan x="0" text-anchor="start">Projection and inspection</tspan></tspan></text></g>
<g id="a1:136" transform="translate(290.925, 252.648)"><text font-size="19" font-family="Noto Sans SC" font-weight="normal" fill="#202833" text-anchor="start" dominant-baseline="alphabetic" x="0"><tspan x="0" y="22.354"><tspan x="0" text-anchor="start">Static and topology facts</tspan></tspan></text></g>
<g id="a1:137" transform="translate(270.34, 293.47)"><text font-size="20" font-family="Noto Sans SC" font-weight="normal" fill="#657181" text-anchor="start" dominant-baseline="alphabetic" x="0"><tspan x="0" y="23.53"><tspan x="0" text-anchor="start">Source ↔ analysis elements</tspan></tspan></text></g>
<g id="o1:40" transform="translate(580, 100)"><rect x="0" y="0" width="250" height="60" fill="#e6efe7" stroke="#202833" stroke-width="1.8" rx="18" ry="18"/></g>
<g id="a1:138" transform="translate(597.31, 98.117)"><text font-size="22" font-family="Noto Sans SC" font-weight="normal" fill="#202833" text-anchor="start" dominant-baseline="alphabetic" x="0"><tspan x="0" y="25.883"><tspan x="0" text-anchor="start">Obligation extraction</tspan></tspan></text></g>
<g id="a1:139" transform="translate(624.15, 126.117)"><text font-size="22" font-family="Noto Sans SC" font-weight="normal" fill="#202833" text-anchor="start" dominant-baseline="alphabetic" x="0"><tspan x="0" y="25.883"><tspan x="0" text-anchor="start">and completion</tspan></tspan></text></g>
<g id="o1:41" transform="translate(580, 215)"><rect x="0" y="0" width="250" height="76" fill="#e6efe7" stroke="#202833" stroke-width="1.8" rx="18" ry="18"/></g>
<g id="a1:140" transform="translate(604.8, 222.295)"><text font-size="21" font-family="Noto Sans SC" font-weight="normal" fill="#202833" text-anchor="start" dominant-baseline="alphabetic" x="0"><tspan x="0" y="24.707"><tspan x="0" text-anchor="start">Multi-view discovery</tspan></tspan></text></g>
<g id="a1:141" transform="translate(592.65, 250.295)"><text font-size="21" font-family="Noto Sans SC" font-weight="normal" fill="#202833" text-anchor="start" dominant-baseline="alphabetic" x="0"><tspan x="0" y="24.707"><tspan x="0" text-anchor="start">Expansion and probing</tspan></tspan></text></g>
<g id="a1:142" transform="translate(571.945, 298.176)"><text font-size="16" font-family="Noto Sans SC" font-weight="normal" fill="#657181" text-anchor="start" dominant-baseline="alphabetic" x="0"><tspan x="0" y="18.824"><tspan x="0" text-anchor="start">Includes deterministic supplements</tspan></tspan></text></g>
<g id="o1:42" transform="translate(895, 215)"><rect x="0" y="0" width="250" height="76" fill="#f5ebd8" stroke="#202833" stroke-width="1.8" rx="0" ry="0"/></g>
<g id="a1:143" transform="translate(918.245, 216.823)"><text font-size="18" font-family="Noto Sans SC" font-weight="normal" fill="#202833" text-anchor="start" dominant-baseline="alphabetic" x="0"><tspan x="0" y="21.177"><tspan x="0" text-anchor="start">Typed predicate binding</tspan></tspan></text></g>
<g id="a1:144" transform="translate(932.19, 239.823)"><text font-size="18" font-family="Noto Sans SC" font-weight="normal" fill="#202833" text-anchor="start" dominant-baseline="alphabetic" x="0"><tspan x="0" y="21.177"><tspan x="0" text-anchor="start">Compile and execute</tspan></tspan></text></g>
<g id="a1:145" transform="translate(965.305, 265.176)"><text font-size="16" font-family="Noto Sans SC" font-weight="normal" fill="#202833" text-anchor="start" dominant-baseline="alphabetic" x="0"><tspan x="0" y="18.824"><tspan x="0" text-anchor="start">(deterministic)</tspan></tspan></text></g>
<g id="o1:43" transform="translate(580, 360)"><rect x="0" y="0" width="250" height="65" fill="#e6efe7" stroke="#202833" stroke-width="1.8" rx="18" ry="18"/></g>
<g id="a1:146" transform="translate(619.88, 361.795)"><text font-size="21" font-family="Noto Sans SC" font-weight="normal" fill="#202833" text-anchor="start" dominant-baseline="alphabetic" x="0"><tspan x="0" y="24.707"><tspan x="0" text-anchor="start">Candidate review</tspan></tspan></text></g>
<g id="a1:147" transform="translate(633.65, 389.795)"><text font-size="21" font-family="Noto Sans SC" font-weight="normal" fill="#202833" text-anchor="start" dominant-baseline="alphabetic" x="0"><tspan x="0" y="24.707"><tspan x="0" text-anchor="start">and correction</tspan></tspan></text></g>
<g id="o1:44" transform="translate(1200, 360)"><rect x="0" y="0" width="210" height="65" fill="#ffffff" stroke="#202833" stroke-width="1.8" rx="0" ry="0"/></g>
<g id="a1:148" transform="translate(1249.91, 362.97)"><text font-size="20" font-family="Noto Sans SC" font-weight="normal" fill="#202833" text-anchor="start" dominant-baseline="alphabetic" x="0"><tspan x="0" y="23.53"><tspan x="0" text-anchor="start">Publish and</tspan></tspan></text></g>
<g id="a1:149" transform="translate(1249.57, 390.97)"><text font-size="20" font-family="Noto Sans SC" font-weight="normal" fill="#202833" text-anchor="start" dominant-baseline="alphabetic" x="0"><tspan x="0" y="23.53"><tspan x="0" text-anchor="start">deduplicate</tspan></tspan></text></g>
<g id="c1:37" transform="translate(230, 130)"><path fill="none" stroke="#202833" stroke-width="2" stroke-linecap="round" stroke-linejoin="round" d="M 0 0 L 350 0"/></g>
<g id="d1:34" transform="translate(567.5, 122.5)"><defs><symbol id="svgicon-d1-34" viewBox="0 0 15 15"><g transform="translate(-567.5 -122.5)"><polygon points="580,130 570,125 570,135" fill="#202833" /></g></symbol></defs><use href="#svgicon-d1-34" x="0" y="0" width="15" height="15"/></g>
<g id="c1:38" transform="translate(230, 245)"><path fill="none" stroke="#202833" stroke-width="2" stroke-linecap="round" stroke-linejoin="round" d="M 0 0 L 45 0"/></g>
<g id="d1:35" transform="translate(262.5, 237.5)"><defs><symbol id="svgicon-d1-35" viewBox="0 0 15 15"><g transform="translate(-262.5 -237.5)"><polygon points="275,245 265,240 265,250" fill="#202833" /></g></symbol></defs><use href="#svgicon-d1-35" x="0" y="0" width="15" height="15"/></g>
<g id="c1:39" transform="translate(525, 250)"><path fill="none" stroke="#202833" stroke-width="2" stroke-linecap="round" stroke-linejoin="round" d="M 0 0 L 55 0"/></g>
<g id="d1:36" transform="translate(567.5, 242.5)"><defs><symbol id="svgicon-d1-36" viewBox="0 0 15 15"><g transform="translate(-567.5 -242.5)"><polygon points="580,250 570,245 570,255" fill="#202833" /></g></symbol></defs><use href="#svgicon-d1-36" x="0" y="0" width="15" height="15"/></g>
<g id="c1:40" transform="translate(705, 160)"><path fill="none" stroke="#202833" stroke-width="2" stroke-linecap="round" stroke-linejoin="round" d="M 0 0 L 0 55"/></g>
<g id="d1:37" transform="translate(697.5, 202.5)"><defs><symbol id="svgicon-d1-37" viewBox="0 0 15 15"><g transform="translate(-697.5 -202.5)"><polygon points="705,215 700,205 710,205" fill="#202833" /></g></symbol></defs><use href="#svgicon-d1-37" x="0" y="0" width="15" height="15"/></g>
<g id="c1:41" transform="translate(830, 250)"><path fill="none" stroke="#202833" stroke-width="2" stroke-linecap="round" stroke-linejoin="round" d="M 0 0 L 65 0"/></g>
<g id="d1:38" transform="translate(882.5, 242.5)"><defs><symbol id="svgicon-d1-38" viewBox="0 0 15 15"><g transform="translate(-882.5 -242.5)"><polygon points="895,250 885,245 885,255" fill="#202833" /></g></symbol></defs><use href="#svgicon-d1-38" x="0" y="0" width="15" height="15"/></g>
<g id="c1:42" transform="translate(770, 291)"><path fill="none" stroke="#202833" stroke-width="2" stroke-linecap="round" stroke-linejoin="round" d="M 250 0 L 250 44 L 0 44 L 0 69"/></g>
<g id="d1:39" transform="translate(762.5, 347.5)"><defs><symbol id="svgicon-d1-39" viewBox="0 0 15 15"><g transform="translate(-762.5 -347.5)"><polygon points="770,360 765,350 775,350" fill="#202833" /></g></symbol></defs><use href="#svgicon-d1-39" x="0" y="0" width="15" height="15"/></g>
<g id="a1:150" transform="translate(1040, 301.001)"><text font-size="17" font-family="Noto Sans SC" font-weight="normal" fill="#202833" text-anchor="start" dominant-baseline="alphabetic" x="0"><tspan x="0" y="20.001"><tspan x="0" text-anchor="start">true / false</tspan></tspan></text></g>
<g id="a1:151" transform="translate(1040, 324.001)"><text font-size="17" font-family="Noto Sans SC" font-weight="normal" fill="#202833" text-anchor="start" dominant-baseline="alphabetic" x="0"><tspan x="0" y="20.001"><tspan x="0" text-anchor="start">unknown</tspan></tspan></text></g>
<g id="c1:43" transform="translate(560, 275)"><path fill="none" stroke="#202833" stroke-width="2" stroke-linecap="round" stroke-linejoin="round" d="M 20 105 L 0 105 L 0 0 L 20 0"/></g>
<g id="d1:40" transform="translate(567.5, 267.5)"><defs><symbol id="svgicon-d1-40" viewBox="0 0 15 15"><g transform="translate(-567.5 -267.5)"><polygon points="580,275 570,270 570,280" fill="#202833" /></g></symbol></defs><use href="#svgicon-d1-40" x="0" y="0" width="15" height="15"/></g>
<g id="a1:152" transform="translate(432, 336)"><text font-size="16" font-family="Noto Sans SC" font-weight="normal" fill="#657181" text-anchor="start" dominant-baseline="alphabetic" x="0"><tspan x="0" y="18.824"><tspan x="0" text-anchor="start">Bounded revision</tspan></tspan></text></g>
<g id="c1:44" transform="translate(830, 393)"><path fill="none" stroke="#202833" stroke-width="2" stroke-linecap="round" stroke-linejoin="round" d="M 0 0 L 370 0"/></g>
<g id="d1:41" transform="translate(1187.5, 385.5)"><defs><symbol id="svgicon-d1-41" viewBox="0 0 15 15"><g transform="translate(-1187.5 -385.5)"><polygon points="1200,393 1190,388 1190,398" fill="#202833" /></g></symbol></defs><use href="#svgicon-d1-41" x="0" y="0" width="15" height="15"/></g>
<g id="a1:153" transform="translate(1212.175, 321.823)"><text font-size="18" font-family="Noto Sans SC" font-weight="normal" fill="#202833" text-anchor="start" dominant-baseline="alphabetic" x="0"><tspan x="0" y="21.177"><tspan x="0" text-anchor="start">Reports with evidence</tspan></tspan></text></g>
<g id="c1:45" transform="translate(400, 330)"><path fill="none" stroke="#657181" stroke-width="2" stroke-dasharray="6 5" d="M 0 0 L 0 79 L 165 79"/></g>
<g id="a1:154" transform="translate(140, 420)"><text font-size="18" font-family="Noto Sans SC" font-weight="normal" fill="#657181" text-anchor="start" dominant-baseline="alphabetic" x="0"><tspan x="0" y="21.177"><tspan x="0" text-anchor="start">Source mapping links discovery, binding, and reports.</tspan></tspan></text></g>
<g id="d1:42" transform="translate(35.1, 349.1)"><defs><symbol id="svgicon-d1-42" viewBox="0 0 31.8 23.8"><g transform="translate(-35.1 -349.1)"><rect x="36" y="350" width="30" height="22" rx="18" fill="#FFFFFF" stroke="#202833" stroke-width="1.8" /></g></symbol></defs><use href="#svgicon-d1-42" x="0" y="0" width="31.8" height="23.8"/></g>
<g id="a1:155" transform="translate(78, 348.001)"><text font-size="17" font-family="Noto Sans SC" font-weight="normal" fill="#202833" text-anchor="start" dominant-baseline="alphabetic" x="0"><tspan x="0" y="20.001"><tspan x="0" text-anchor="start">LLM-involving</tspan></tspan></text></g>
<g id="o1:45" transform="translate(36, 393)"><rect x="0" y="0" width="30" height="22" fill="#ffffff" stroke="#202833" stroke-width="1.8" rx="0" ry="0"/></g>
<g id="a1:156" transform="translate(78, 391.001)"><text font-size="17" font-family="Noto Sans SC" font-weight="normal" fill="#202833" text-anchor="start" dominant-baseline="alphabetic" x="0"><tspan x="0" y="20.001"><tspan x="0" text-anchor="start">Deterministic</tspan></tspan></text></g>
<g id="c1:46" transform="translate(25, 457)"><path fill="none" stroke="#aab1ba" stroke-width="2" stroke-linecap="round" stroke-linejoin="round" d="M 0 0 L 1385 0"/></g>
<g id="a1:157" transform="translate(38, 465.942)"><text font-size="23" font-family="Noto Sans SC" font-weight="bold" fill="#202833" text-anchor="start" dominant-baseline="alphabetic" x="0"><tspan x="0" y="27.06"><tspan x="0" text-anchor="start">(b) Stopping-event example</tspan></tspan></text></g>
<g id="a1:158" transform="translate(650, 467.117)"><text font-size="22" font-family="Noto Sans SC" font-weight="normal" fill="#202833" text-anchor="start" dominant-baseline="alphabetic" x="0"><tspan x="0" y="25.883"><tspan x="0" text-anchor="start">Obligation: return to Idle after Stop.</tspan></tspan></text></g>
<g id="o1:46" transform="translate(45, 554)"><rect x="0" y="0" width="125" height="62" fill="#ffffff" stroke="#202833" stroke-width="1.8" rx="18" ry="18"/></g>
<g id="a1:159" transform="translate(88.24, 567.117)"><text font-size="22" font-family="Noto Sans SC" font-weight="normal" fill="#202833" text-anchor="start" dominant-baseline="alphabetic" x="0"><tspan x="0" y="25.883"><tspan x="0" text-anchor="start">Idle</tspan></tspan></text></g>
<g id="o1:47" transform="translate(250, 554)"><rect x="0" y="0" width="145" height="62" fill="#ffffff" stroke="#202833" stroke-width="1.8" rx="18" ry="18"/></g>
<g id="a1:160" transform="translate(279.48, 567.117)"><text font-size="22" font-family="Noto Sans SC" font-weight="normal" fill="#202833" text-anchor="start" dominant-baseline="alphabetic" x="0"><tspan x="0" y="25.883"><tspan x="0" text-anchor="start">Running</tspan></tspan></text></g>
<g id="o1:48" transform="translate(470, 554)"><rect x="0" y="0" width="125" height="62" fill="#ffffff" stroke="#202833" stroke-width="1.8" rx="18" ry="18"/></g>
<g id="a1:161" transform="translate(511.03, 567.117)"><text font-size="22" font-family="Noto Sans SC" font-weight="normal" fill="#202833" text-anchor="start" dominant-baseline="alphabetic" x="0"><tspan x="0" y="25.883"><tspan x="0" text-anchor="start">Halt</tspan></tspan></text></g>
<g id="c1:47" transform="translate(170, 585)"><path fill="none" stroke="#202833" stroke-width="2" stroke-linecap="round" stroke-linejoin="round" d="M 0 0 L 80 0"/></g>
<g id="d1:43" transform="translate(237.5, 577.5)"><defs><symbol id="svgicon-d1-43" viewBox="0 0 15 15"><g transform="translate(-237.5 -577.5)"><polygon points="250,585 240,580 240,590" fill="#202833" /></g></symbol></defs><use href="#svgicon-d1-43" x="0" y="0" width="15" height="15"/></g>
<g id="a1:162" transform="translate(189.625, 547.648)"><text font-size="19" font-family="Noto Sans SC" font-weight="normal" fill="#202833" text-anchor="start" dominant-baseline="alphabetic" x="0"><tspan x="0" y="22.354"><tspan x="0" text-anchor="start">Start</tspan></tspan></text></g>
<g id="c1:48" transform="translate(395, 585)"><path fill="none" stroke="#202833" stroke-width="2" stroke-linecap="round" stroke-linejoin="round" d="M 0 0 L 75 0"/></g>
<g id="d1:44" transform="translate(457.5, 577.5)"><defs><symbol id="svgicon-d1-44" viewBox="0 0 15 15"><g transform="translate(-457.5 -577.5)"><polygon points="470,585 460,580 460,590" fill="#202833" /></g></symbol></defs><use href="#svgicon-d1-44" x="0" y="0" width="15" height="15"/></g>
<g id="a1:163" transform="translate(412.51, 547.648)"><text font-size="19" font-family="Noto Sans SC" font-weight="normal" fill="#202833" text-anchor="start" dominant-baseline="alphabetic" x="0"><tspan x="0" y="22.354"><tspan x="0" text-anchor="start">Stop</tspan></tspan></text></g>
<g id="a1:164" transform="translate(441.75, 625.648)"><text font-size="19" font-family="Noto Sans SC" font-weight="normal" fill="#657181" text-anchor="start" dominant-baseline="alphabetic" x="0"><tspan x="0" y="22.354"><tspan x="0" text-anchor="start">No outgoing edge</tspan></tspan></text></g>
<g id="a1:165" transform="translate(650, 520.942)"><text font-size="23" font-family="Noto Sans SC" font-weight="normal" fill="#202833" text-anchor="start" dominant-baseline="alphabetic" x="0"><tspan x="0" y="27.06"><tspan x="0" text-anchor="start">may_reach(Halt, {Idle}) = false</tspan></tspan></text></g>
<g id="a1:166" transform="translate(650, 554.295)"><text font-size="21" font-family="Noto Sans SC" font-weight="normal" fill="#202833" text-anchor="start" dominant-baseline="alphabetic" x="0"><tspan x="0" y="24.707"><tspan x="0" text-anchor="start">Supports the missing-return-path claim.</tspan></tspan></text></g>
<g id="a1:167" transform="translate(650, 596.942)"><text font-size="23" font-family="Noto Sans SC" font-weight="normal" fill="#202833" text-anchor="start" dominant-baseline="alphabetic" x="0"><tspan x="0" y="27.06"><tspan x="0" text-anchor="start">transition_exists(Running, Halt) = true</tspan></tspan></text></g>
<g id="a1:168" transform="translate(650, 626.295)"><text font-size="23" font-family="Noto Sans SC" font-weight="normal" fill="#202833" text-anchor="start" dominant-baseline="alphabetic" x="0"><tspan x="0" y="27.06"><tspan x="0" text-anchor="start">trigger_set_equals(Running→Halt, {Stop}) = true</tspan></tspan></text></g>
<g id="a1:169" transform="translate(650, 655.501)"><text font-size="21" font-family="Noto Sans SC" font-weight="normal" fill="#202833" text-anchor="start" dominant-baseline="alphabetic" x="0"><tspan x="0" y="24.707"><tspan x="0" text-anchor="start">Refutes the claim that the Stop transition is missing.</tspan></tspan></text></g>
<g id="a1:170" transform="translate(38, 688)"><text font-size="18" font-family="Noto Sans SC" font-weight="normal" fill="#657181" text-anchor="start" dominant-baseline="alphabetic" x="0"><tspan x="0" y="21.177"><tspan x="0" text-anchor="start">Verdicts are scoped to the representation and query. An unknown result alone does not establish a defect. Illustrative example only.</tspan></tspan></text></g>
</svg>