<svg xmlns="http://www.w3.org/2000/svg"
     width="1425"
     height="737"
     viewBox="5 -16.236 1425 736.1229999999999">
<g id="a1:43" transform="translate(38, 3.764)"><text font-size="24" font-family="Noto Sans SC" font-weight="bold" fill="#202833" text-anchor="start" dominant-baseline="alphabetic" x="0"><tspan x="0" y="28.236"><tspan x="0" text-anchor="start">(a) Integrated method</tspan></tspan></text></g>
<g id="a1:44" transform="translate(284.93, 36.764)"><text font-size="24" font-family="Noto Sans SC" font-weight="bold" fill="#202833" text-anchor="start" dominant-baseline="alphabetic" x="0"><tspan x="0" y="28.236"><tspan x="0" text-anchor="start">C-1 Inspection facts</tspan></tspan></text></g>
<g id="a1:45" transform="translate(546.455, 36.764)"><text font-size="24" font-family="Noto Sans SC" font-weight="bold" fill="#202833" text-anchor="start" dominant-baseline="alphabetic" x="0"><tspan x="0" y="28.236"><tspan x="0" text-anchor="start">C-2 Intermediate guidance</tspan></tspan></text></g>
<g id="a1:46" transform="translate(883.32, 36.764)"><text font-size="24" font-family="Noto Sans SC" font-weight="bold" fill="#202833" text-anchor="start" dominant-baseline="alphabetic" x="0"><tspan x="0" y="28.236"><tspan x="0" text-anchor="start">C-3 Execution feedback</tspan></tspan></text></g>
<g id="o1:13" transform="translate(25, 100)"><rect x="0" y="0" width="205" height="60" fill="#ffffff" stroke="#202833" stroke-width="1.8" rx="0" ry="0"/></g>
<g id="a1:47" transform="translate(52.985, 112.117)"><text font-size="22" font-family="Noto Sans SC" font-weight="normal" fill="#202833" text-anchor="start" dominant-baseline="alphabetic" x="0"><tspan x="0" y="25.883"><tspan x="0" text-anchor="start">NL description</tspan></tspan></text></g>
<g id="o1:14" transform="translate(25, 215)"><rect x="0" y="0" width="205" height="60" fill="#ffffff" stroke="#202833" stroke-width="1.8" rx="0" ry="0"/></g>
<g id="a1:48" transform="translate(64.655, 213.117)"><text font-size="22" font-family="Noto Sans SC" font-weight="normal" fill="#202833" text-anchor="start" dominant-baseline="alphabetic" x="0"><tspan x="0" y="25.883"><tspan x="0" text-anchor="start">Source state</tspan></tspan></text></g>
<g id="a1:49" transform="translate(83.005, 241.117)"><text font-size="22" font-family="Noto Sans SC" font-weight="normal" fill="#202833" text-anchor="start" dominant-baseline="alphabetic" x="0"><tspan x="0" y="25.883"><tspan x="0" text-anchor="start">machine</tspan></tspan></text></g>
<g id="o1:15" transform="translate(275, 215)"><rect x="0" y="0" width="250" height="76" fill="#dcebf4" stroke="#202833" stroke-width="1.8" rx="0" ry="0"/></g>
<g id="a1:50" transform="translate(286.505, 224.647)"><text font-size="19" font-family="Noto Sans SC" font-weight="normal" fill="#202833" text-anchor="start" dominant-baseline="alphabetic" x="0"><tspan x="0" y="22.354"><tspan x="0" text-anchor="start">Projection and inspection</tspan></tspan></text></g>
<g id="a1:51" transform="translate(290.925, 252.647)"><text font-size="19" font-family="Noto Sans SC" font-weight="normal" fill="#202833" text-anchor="start" dominant-baseline="alphabetic" x="0"><tspan x="0" y="22.354"><tspan x="0" text-anchor="start">Static and topology facts</tspan></tspan></text></g>
<g id="a1:52" transform="translate(270.34, 293.47)"><text font-size="20" font-family="Noto Sans SC" font-weight="normal" fill="#657181" text-anchor="start" dominant-baseline="alphabetic" x="0"><tspan x="0" y="23.53"><tspan x="0" text-anchor="start">Source ↔ analysis elements</tspan></tspan></text></g>
<g id="o1:16" transform="translate(580, 100)"><rect x="0" y="0" width="250" height="60" fill="#e6efe7" stroke="#202833" stroke-width="1.8" rx="18" ry="18"/></g>
<g id="a1:53" transform="translate(597.31, 98.117)"><text font-size="22" font-family="Noto Sans SC" font-weight="normal" fill="#202833" text-anchor="start" dominant-baseline="alphabetic" x="0"><tspan x="0" y="25.883"><tspan x="0" text-anchor="start">Obligation extraction</tspan></tspan></text></g>
<g id="a1:54" transform="translate(624.15, 126.117)"><text font-size="22" font-family="Noto Sans SC" font-weight="normal" fill="#202833" text-anchor="start" dominant-baseline="alphabetic" x="0"><tspan x="0" y="25.883"><tspan x="0" text-anchor="start">and completion</tspan></tspan></text></g>
<g id="o1:17" transform="translate(580, 215)"><rect x="0" y="0" width="250" height="76" fill="#e6efe7" stroke="#202833" stroke-width="1.8" rx="18" ry="18"/></g>
<g id="a1:55" transform="translate(604.8, 222.294)"><text font-size="21" font-family="Noto Sans SC" font-weight="normal" fill="#202833" text-anchor="start" dominant-baseline="alphabetic" x="0"><tspan x="0" y="24.707"><tspan x="0" text-anchor="start">Multi-view discovery</tspan></tspan></text></g>
<g id="a1:56" transform="translate(592.65, 250.294)"><text font-size="21" font-family="Noto Sans SC" font-weight="normal" fill="#202833" text-anchor="start" dominant-baseline="alphabetic" x="0"><tspan x="0" y="24.707"><tspan x="0" text-anchor="start">Expansion and probing</tspan></tspan></text></g>
<g id="a1:57" transform="translate(571.945, 298.176)"><text font-size="16" font-family="Noto Sans SC" font-weight="normal" fill="#657181" text-anchor="start" dominant-baseline="alphabetic" x="0"><tspan x="0" y="18.824"><tspan x="0" text-anchor="start">Includes deterministic supplements</tspan></tspan></text></g>
<g id="o1:18" transform="translate(895, 215)"><rect x="0" y="0" width="250" height="76" fill="#f5ebd8" stroke="#202833" stroke-width="1.8" rx="0" ry="0"/></g>
<g id="a1:58" transform="translate(918.245, 216.823)"><text font-size="18" font-family="Noto Sans SC" font-weight="normal" fill="#202833" text-anchor="start" dominant-baseline="alphabetic" x="0"><tspan x="0" y="21.177"><tspan x="0" text-anchor="start">Typed predicate binding</tspan></tspan></text></g>
<g id="a1:59" transform="translate(932.19, 239.823)"><text font-size="18" font-family="Noto Sans SC" font-weight="normal" fill="#202833" text-anchor="start" dominant-baseline="alphabetic" x="0"><tspan x="0" y="21.177"><tspan x="0" text-anchor="start">Compile and execute</tspan></tspan></text></g>
<g id="a1:60" transform="translate(965.305, 265.176)"><text font-size="16" font-family="Noto Sans SC" font-weight="normal" fill="#202833" text-anchor="start" dominant-baseline="alphabetic" x="0"><tspan x="0" y="18.824"><tspan x="0" text-anchor="start">(deterministic)</tspan></tspan></text></g>
<g id="o1:19" transform="translate(895, 360)"><rect x="0" y="0" width="250" height="65" fill="#e6efe7" stroke="#202833" stroke-width="1.8" rx="18" ry="18"/></g>
<g id="a1:61" transform="translate(934.88, 361.794)"><text font-size="21" font-family="Noto Sans SC" font-weight="normal" fill="#202833" text-anchor="start" dominant-baseline="alphabetic" x="0"><tspan x="0" y="24.707"><tspan x="0" text-anchor="start">Candidate review</tspan></tspan></text></g>
<g id="a1:62" transform="translate(948.65, 389.794)"><text font-size="21" font-family="Noto Sans SC" font-weight="normal" fill="#202833" text-anchor="start" dominant-baseline="alphabetic" x="0"><tspan x="0" y="24.707"><tspan x="0" text-anchor="start">and correction</tspan></tspan></text></g>
<g id="o1:20" transform="translate(1200, 360)"><rect x="0" y="0" width="210" height="65" fill="#ffffff" stroke="#202833" stroke-width="1.8" rx="0" ry="0"/></g>
<g id="a1:63" transform="translate(1249.91, 362.97)"><text font-size="20" font-family="Noto Sans SC" font-weight="normal" fill="#202833" text-anchor="start" dominant-baseline="alphabetic" x="0"><tspan x="0" y="23.53"><tspan x="0" text-anchor="start">Publish and</tspan></tspan></text></g>
<g id="a1:64" transform="translate(1249.57, 390.97)"><text font-size="20" font-family="Noto Sans SC" font-weight="normal" fill="#202833" text-anchor="start" dominant-baseline="alphabetic" x="0"><tspan x="0" y="23.53"><tspan x="0" text-anchor="start">deduplicate</tspan></tspan></text></g>
<g id="c1:13" transform="translate(230, 130)"><path fill="none" stroke="#202833" stroke-width="2" stroke-linecap="round" stroke-linejoin="round" d="M 0 0 L 350 0"/></g>
<g id="d1:12" transform="translate(567.5, 122.5)"><defs><symbol id="svgicon-d1-12" viewBox="0 0 15 15"><g transform="translate(-567.5 -122.5)"><polygon points="580,130 570,125 570,135" fill="#202833" /></g></symbol></defs><use href="#svgicon-d1-12" x="0" y="0" width="15" height="15"/></g>
<g id="c1:14" transform="translate(230, 245)"><path fill="none" stroke="#202833" stroke-width="2" stroke-linecap="round" stroke-linejoin="round" d="M 0 0 L 45 0"/></g>
<g id="d1:13" transform="translate(262.5, 237.5)"><defs><symbol id="svgicon-d1-13" viewBox="0 0 15 15"><g transform="translate(-262.5 -237.5)"><polygon points="275,245 265,240 265,250" fill="#202833" /></g></symbol></defs><use href="#svgicon-d1-13" x="0" y="0" width="15" height="15"/></g>
<g id="c1:15" transform="translate(525, 250)"><path fill="none" stroke="#202833" stroke-width="2" stroke-linecap="round" stroke-linejoin="round" d="M 0 0 L 55 0"/></g>
<g id="d1:14" transform="translate(567.5, 242.5)"><defs><symbol id="svgicon-d1-14" viewBox="0 0 15 15"><g transform="translate(-567.5 -242.5)"><polygon points="580,250 570,245 570,255" fill="#202833" /></g></symbol></defs><use href="#svgicon-d1-14" x="0" y="0" width="15" height="15"/></g>
<g id="c1:16" transform="translate(705, 160)"><path fill="none" stroke="#202833" stroke-width="2" stroke-linecap="round" stroke-linejoin="round" d="M 0 0 L 0 55"/></g>
<g id="d1:15" transform="translate(697.5, 202.5)"><defs><symbol id="svgicon-d1-15" viewBox="0 0 15 15"><g transform="translate(-697.5 -202.5)"><polygon points="705,215 700,205 710,205" fill="#202833" /></g></symbol></defs><use href="#svgicon-d1-15" x="0" y="0" width="15" height="15"/></g>
<g id="c1:17" transform="translate(830, 250)"><path fill="none" stroke="#202833" stroke-width="2" stroke-linecap="round" stroke-linejoin="round" d="M 0 0 L 65 0"/></g>
<g id="d1:16" transform="translate(882.5, 242.5)"><defs><symbol id="svgicon-d1-16" viewBox="0 0 15 15"><g transform="translate(-882.5 -242.5)"><polygon points="895,250 885,245 885,255" fill="#202833" /></g></symbol></defs><use href="#svgicon-d1-16" x="0" y="0" width="15" height="15"/></g>
<g id="c1:18" transform="translate(1020, 291)"><path fill="none" stroke="#202833" stroke-width="2" stroke-linecap="round" stroke-linejoin="round" d="M 0 0 L 0 69"/></g>
<g id="d1:17" transform="translate(1012.5, 347.5)"><defs><symbol id="svgicon-d1-17" viewBox="0 0 15 15"><g transform="translate(-1012.5 -347.5)"><polygon points="1020,360 1015,350 1025,350" fill="#202833" /></g></symbol></defs><use href="#svgicon-d1-17" x="0" y="0" width="15" height="15"/></g>
<g id="a1:65" transform="translate(1040, 301)"><text font-size="17" font-family="Noto Sans SC" font-weight="normal" fill="#202833" text-anchor="start" dominant-baseline="alphabetic" x="0"><tspan x="0" y="20.001"><tspan x="0" text-anchor="start">true / false</tspan></tspan></text></g>
<g id="a1:66" transform="translate(1040, 324)"><text font-size="17" font-family="Noto Sans SC" font-weight="normal" fill="#202833" text-anchor="start" dominant-baseline="alphabetic" x="0"><tspan x="0" y="20.001"><tspan x="0" text-anchor="start">unknown</tspan></tspan></text></g>
<g id="c1:19" transform="translate(830, 278)"><path fill="none" stroke="#202833" stroke-width="2" stroke-linecap="round" stroke-linejoin="round" d="M 65 115 L 20 115 L 20 0 L 0 0"/></g>
<g id="d1:18" transform="translate(827.5, 270.5)"><defs><symbol id="svgicon-d1-18" viewBox="0 0 15 15"><g transform="translate(-827.5 -270.5)"><polygon points="830,278 840,273 840,283" fill="#202833" /></g></symbol></defs><use href="#svgicon-d1-18" x="0" y="0" width="15" height="15"/></g>
<g id="a1:67" transform="translate(700.97, 354.176)"><text font-size="16" font-family="Noto Sans SC" font-weight="normal" fill="#657181" text-anchor="start" dominant-baseline="alphabetic" x="0"><tspan x="0" y="18.824"><tspan x="0" text-anchor="start">Bounded revision</tspan></tspan></text></g>
<g id="c1:20" transform="translate(1145, 393)"><path fill="none" stroke="#202833" stroke-width="2" stroke-linecap="round" stroke-linejoin="round" d="M 0 0 L 55 0"/></g>
<g id="d1:19" transform="translate(1187.5, 385.5)"><defs><symbol id="svgicon-d1-19" viewBox="0 0 15 15"><g transform="translate(-1187.5 -385.5)"><polygon points="1200,393 1190,388 1190,398" fill="#202833" /></g></symbol></defs><use href="#svgicon-d1-19" x="0" y="0" width="15" height="15"/></g>
<g id="a1:68" transform="translate(1212.175, 321.823)"><text font-size="18" font-family="Noto Sans SC" font-weight="normal" fill="#202833" text-anchor="start" dominant-baseline="alphabetic" x="0"><tspan x="0" y="21.177"><tspan x="0" text-anchor="start">Reports with evidence</tspan></tspan></text></g>
<g id="c1:21" transform="translate(400, 330)"><path fill="none" stroke="#657181" stroke-width="2" stroke-dasharray="6 5" d="M 0 0 L 0 79 L 465 79"/></g>
<g id="a1:69" transform="translate(390, 409.823)"><text font-size="18" font-family="Noto Sans SC" font-weight="normal" fill="#657181" text-anchor="start" dominant-baseline="alphabetic" x="0"><tspan x="0" y="21.177"><tspan x="0" text-anchor="start">Source mapping links discovery, binding, and reports.</tspan></tspan></text></g>
<g id="d1:20" transform="translate(35.1, 349.1)"><defs><symbol id="svgicon-d1-20" viewBox="0 0 31.8 23.8"><g transform="translate(-35.1 -349.1)"><rect x="36" y="350" width="30" height="22" rx="18" fill="#FFFFFF" stroke="#202833" stroke-width="1.8" /></g></symbol></defs><use href="#svgicon-d1-20" x="0" y="0" width="31.8" height="23.8"/></g>
<g id="a1:70" transform="translate(78, 348)"><text font-size="17" font-family="Noto Sans SC" font-weight="normal" fill="#202833" text-anchor="start" dominant-baseline="alphabetic" x="0"><tspan x="0" y="20.001"><tspan x="0" text-anchor="start">LLM-involving</tspan></tspan></text></g>
<g id="o1:21" transform="translate(36, 393)"><rect x="0" y="0" width="30" height="22" fill="#ffffff" stroke="#202833" stroke-width="1.8" rx="0" ry="0"/></g>
<g id="a1:71" transform="translate(78, 391)"><text font-size="17" font-family="Noto Sans SC" font-weight="normal" fill="#202833" text-anchor="start" dominant-baseline="alphabetic" x="0"><tspan x="0" y="20.001"><tspan x="0" text-anchor="start">Deterministic</tspan></tspan></text></g>
<g id="c1:22" transform="translate(25, 457)"><path fill="none" stroke="#aab1ba" stroke-width="2" stroke-linecap="round" stroke-linejoin="round" d="M 0 0 L 1385 0"/></g>
<g id="a1:72" transform="translate(38, 465.941)"><text font-size="23" font-family="Noto Sans SC" font-weight="bold" fill="#202833" text-anchor="start" dominant-baseline="alphabetic" x="0"><tspan x="0" y="27.06"><tspan x="0" text-anchor="start">(b) Stopping-event example</tspan></tspan></text></g>
<g id="a1:73" transform="translate(650, 467.117)"><text font-size="22" font-family="Noto Sans SC" font-weight="normal" fill="#202833" text-anchor="start" dominant-baseline="alphabetic" x="0"><tspan x="0" y="25.883"><tspan x="0" text-anchor="start">Obligation: return to Idle after Stop.</tspan></tspan></text></g>
<g id="o1:22" transform="translate(45, 554)"><rect x="0" y="0" width="125" height="62" fill="#ffffff" stroke="#202833" stroke-width="1.8" rx="18" ry="18"/></g>
<g id="a1:74" transform="translate(88.24, 567.117)"><text font-size="22" font-family="Noto Sans SC" font-weight="normal" fill="#202833" text-anchor="start" dominant-baseline="alphabetic" x="0"><tspan x="0" y="25.883"><tspan x="0" text-anchor="start">Idle</tspan></tspan></text></g>
<g id="o1:23" transform="translate(250, 554)"><rect x="0" y="0" width="145" height="62" fill="#ffffff" stroke="#202833" stroke-width="1.8" rx="18" ry="18"/></g>
<g id="a1:75" transform="translate(279.48, 567.117)"><text font-size="22" font-family="Noto Sans SC" font-weight="normal" fill="#202833" text-anchor="start" dominant-baseline="alphabetic" x="0"><tspan x="0" y="25.883"><tspan x="0" text-anchor="start">Running</tspan></tspan></text></g>
<g id="o1:24" transform="translate(470, 554)"><rect x="0" y="0" width="125" height="62" fill="#ffffff" stroke="#202833" stroke-width="1.8" rx="18" ry="18"/></g>
<g id="a1:76" transform="translate(511.03, 567.117)"><text font-size="22" font-family="Noto Sans SC" font-weight="normal" fill="#202833" text-anchor="start" dominant-baseline="alphabetic" x="0"><tspan x="0" y="25.883"><tspan x="0" text-anchor="start">Halt</tspan></tspan></text></g>
<g id="c1:23" transform="translate(170, 585)"><path fill="none" stroke="#202833" stroke-width="2" stroke-linecap="round" stroke-linejoin="round" d="M 0 0 L 80 0"/></g>
<g id="d1:21" transform="translate(237.5, 577.5)"><defs><symbol id="svgicon-d1-21" viewBox="0 0 15 15"><g transform="translate(-237.5 -577.5)"><polygon points="250,585 240,580 240,590" fill="#202833" /></g></symbol></defs><use href="#svgicon-d1-21" x="0" y="0" width="15" height="15"/></g>
<g id="a1:77" transform="translate(189.625, 547.647)"><text font-size="19" font-family="Noto Sans SC" font-weight="normal" fill="#202833" text-anchor="start" dominant-baseline="alphabetic" x="0"><tspan x="0" y="22.354"><tspan x="0" text-anchor="start">Start</tspan></tspan></text></g>
<g id="c1:24" transform="translate(395, 585)"><path fill="none" stroke="#202833" stroke-width="2" stroke-linecap="round" stroke-linejoin="round" d="M 0 0 L 75 0"/></g>
<g id="d1:22" transform="translate(457.5, 577.5)"><defs><symbol id="svgicon-d1-22" viewBox="0 0 15 15"><g transform="translate(-457.5 -577.5)"><polygon points="470,585 460,580 460,590" fill="#202833" /></g></symbol></defs><use href="#svgicon-d1-22" x="0" y="0" width="15" height="15"/></g>
<g id="a1:78" transform="translate(412.51, 547.647)"><text font-size="19" font-family="Noto Sans SC" font-weight="normal" fill="#202833" text-anchor="start" dominant-baseline="alphabetic" x="0"><tspan x="0" y="22.354"><tspan x="0" text-anchor="start">Stop</tspan></tspan></text></g>
<g id="a1:79" transform="translate(441.75, 625.647)"><text font-size="19" font-family="Noto Sans SC" font-weight="normal" fill="#657181" text-anchor="start" dominant-baseline="alphabetic" x="0"><tspan x="0" y="22.354"><tspan x="0" text-anchor="start">No outgoing edge</tspan></tspan></text></g>
<g id="a1:80" transform="translate(650, 520.941)"><text font-size="23" font-family="Noto Sans SC" font-weight="normal" fill="#202833" text-anchor="start" dominant-baseline="alphabetic" x="0"><tspan x="0" y="27.06"><tspan x="0" text-anchor="start">may_reach(Halt, {Idle}) = false</tspan></tspan></text></g>
<g id="a1:81" transform="translate(650, 554.294)"><text font-size="21" font-family="Noto Sans SC" font-weight="normal" fill="#202833" text-anchor="start" dominant-baseline="alphabetic" x="0"><tspan x="0" y="24.707"><tspan x="0" text-anchor="start">Supports the missing-return-path claim.</tspan></tspan></text></g>
<g id="a1:82" transform="translate(650, 596.941)"><text font-size="23" font-family="Noto Sans SC" font-weight="normal" fill="#202833" text-anchor="start" dominant-baseline="alphabetic" x="0"><tspan x="0" y="27.06"><tspan x="0" text-anchor="start">transition_exists(Running, Stop, Halt) = true</tspan></tspan></text></g>
<g id="a1:83" transform="translate(650, 630.294)"><text font-size="21" font-family="Noto Sans SC" font-weight="normal" fill="#202833" text-anchor="start" dominant-baseline="alphabetic" x="0"><tspan x="0" y="24.707"><tspan x="0" text-anchor="start">Refutes the claim that this Stop transition is missing.</tspan></tspan></text></g>
<g id="a1:84" transform="translate(38, 673.823)"><text font-size="18" font-family="Noto Sans SC" font-weight="normal" fill="#657181" text-anchor="start" dominant-baseline="alphabetic" x="0"><tspan x="0" y="21.177"><tspan x="0" text-anchor="start">Verdicts are scoped to the representation and query. An unknown result alone does not establish a defect. Illustrative example only.</tspan></tspan></text></g>
</svg>